<?xml version="1.0" encoding="UTF-8"?>
<svg id="Calque_2" data-name="Calque 2" xmlns="http://www.w3.org/2000/svg" viewBox="0 0 37.8 37.8">
  <defs>
    <style>
      .cls-1 {
        fill: #fff;
        stroke-width: 0px;
      }
    </style>
  </defs>
  <g id="Calque_1-2" data-name="Calque 1">
    <g>
      <path class="cls-1" d="M18.9,3.4c5,0,5.6,0,7.6.1,1.8.1,2.8.4,3.5.7.9.4,1.5.8,2.2,1.4.7.7,1.1,1.3,1.4,2.2.3.7.6,1.6.7,3.5.1,2,.1,2.6.1,7.6s0,5.6-.1,7.6c-.1,1.8-.4,2.8-.7,3.5-.4.9-.8,1.5-1.4,2.2s-1.3,1.1-2.2,1.4c-.7.3-1.6.6-3.5.7-2,.1-2.6.1-7.6.1s-5.6,0-7.6-.1c-1.8-.1-2.8-.4-3.5-.7-.9-.4-1.5-.8-2.2-1.4-.7-.7-1.1-1.3-1.4-2.2-.3-.7-.6-1.6-.7-3.5-.1-2-.1-2.6-.1-7.6s0-5.6.1-7.6c.1-1.8.4-2.8.7-3.5.4-.9.8-1.5,1.4-2.2.7-.7,1.3-1.1,2.2-1.4.7-.3,1.6-.6,3.5-.7,2-.1,2.6-.1,7.6-.1M18.9,0c-5.1,0-5.8,0-7.8.1s-3.4.4-4.6.9-2.3,1.1-3.3,2.2c-1.1,1.1-1.7,2.1-2.2,3.3-.5,1.2-.8,2.6-.9,4.6-.1,2-.1,2.7-.1,7.8s0,5.8.1,7.8.4,3.4.9,4.6,1.1,2.3,2.2,3.3c1.1,1.1,2.1,1.7,3.3,2.2s2.6.8,4.6.9,2.7.1,7.8.1,5.8,0,7.8-.1,3.4-.4,4.6-.9,2.3-1.1,3.3-2.2c1.1-1.1,1.7-2.1,2.2-3.3.5-1.2.8-2.6.9-4.6s.1-2.7.1-7.8,0-5.8-.1-7.8-.4-3.4-.9-4.6-1.1-2.3-2.2-3.3c-1.1-1.1-2.1-1.7-3.3-2.2s-2.6-.8-4.6-.9c-2,0-2.7-.1-7.8-.1h0Z"/>
      <path class="cls-1" d="M18.9,9.2c-5.4,0-9.7,4.4-9.7,9.7s4.4,9.7,9.7,9.7,9.7-4.4,9.7-9.7-4.3-9.7-9.7-9.7ZM18.9,25.2c-3.5,0-6.3-2.8-6.3-6.3s2.8-6.3,6.3-6.3,6.3,2.8,6.3,6.3-2.8,6.3-6.3,6.3Z"/>
      <circle class="cls-1" cx="29" cy="8.8" r="2.3"/>
    </g>
  </g>
</svg>