<?xml version="1.0" encoding="UTF-8"?>
<svg id="Calque_2" data-name="Calque 2" xmlns="http://www.w3.org/2000/svg" viewBox="0 0 41.45 25.89">
  <defs>
    <style>
      .cls-1 {
        fill: #fff;
        stroke-width: 0px;
      }
    </style>
  </defs>
  <g id="Calque_1-2" data-name="Calque 1">
    <g>
      <path class="cls-1" d="M10.55,11.4c-2.3,0-4.2,1.9-4.2,4.2s1.9,4.2,4.2,4.2,4.2-1.9,4.2-4.2c-.1-2.4-1.9-4.2-4.2-4.2h0Z"/>
      <path class="cls-1" d="M31.15,11.4c-2.3,0-4.2,1.9-4.2,4.2s1.9,4.2,4.2,4.2,4.2-1.9,4.2-4.2-1.9-4.2-4.2-4.2Z"/>
      <path class="cls-1" d="M38.45,8.2l1.7-1.7c.5-.5.1-1.3-.6-1.3h-4.3C31.75,2.4,26.05,0,20.75,0S9.75,2.3,6.25,5.2H1.95c-.7,0-1,.8-.6,1.3l1.7,1.7C.95,10.3-.25,13.2.05,16.5c.4,4.8,4.3,8.8,9.1,9.3,3.1.4,6-.6,8.1-2.5l3,2.2c.3.2.6.2.9,0l3-2.2v-.1c1.8,1.6,4.2,2.6,6.9,2.6,5.7,0,10.4-4.6,10.4-10.4.1-2.7-1.1-5.3-3-7.2h0ZM29.85,5.3c-4.9.6-8.8,4.7-9,9.7-.3-5-4.2-9.1-9.1-9.7,2.5-1.8,5.6-2.7,9.1-2.7s6.6.9,9,2.7ZM10.55,23.3c-4.3,0-7.8-3.5-7.8-7.8s3.5-7.8,7.8-7.8,7.8,3.5,7.8,7.8c-.1,4.3-3.5,7.8-7.8,7.8ZM31.15,23.3c-4.3,0-7.8-3.5-7.8-7.8s3.5-7.8,7.8-7.8,7.8,3.5,7.8,7.8-3.5,7.8-7.8,7.8Z"/>
    </g>
  </g>
</svg>